<svg data-noselect="" viewBox="0 0 400 300" width="400" height="300" preserveAspectRatio="none" version="1.1" xmlns="http://www.w3.org/2000/svg" style="background: rgba(255, 255, 255, 0);"><defs></defs> <g id="shape_E4HSlfTlYm" transform="translate(61.58088235294116,33.08823529411765) rotate(0,0,0) scale(1.1029411764705883,1.1029411764705883)" filter="" style="cursor: move; opacity: 1;"><g><rect fill="rgba(0,0,0,0)" width="271" height="188" x="-10" y="-10"></rect><svg version="1.1" id="图层_1" xmlns="http://www.w3.org/2000/svg" xmlns:xlink="http://www.w3.org/1999/xlink" x="0px" y="0px" style="enable-background:new 0 0 283.465 283.465;" xml:space="preserve" viewBox="16.147747039794922 57.46474075317383 251.16868591308594 168.53526306152344" width="251" height="168" preserveAspectRatio="none" data-parent="shape_E4HSlfTlYm">
<g>
	
		<linearGradient id="SVGID_1_" gradientUnits="userSpaceOnUse" x1="181.0288" y1="650.0577" x2="221.2841" y2="675.5854" gradientTransform="matrix(1 0 0 -1 0 812.2786)">
		<stop offset="0" style="" stop-color="#131D32"></stop>
		<stop offset="0.2503" style="" stop-color="#1F324E"></stop>
		<stop offset="0.7534" style="" stop-color="#355982"></stop>
		<stop offset="1" style="" stop-color="#3E6896"></stop>
	</linearGradient>
	<path style="" d="M265.735,208.366L182.199,63.68c-4.792-8.287-16.77-8.287-21.562,0l-4.516,7.816
		c-0.039,0.117-0.079,0.157-0.079,0.157l-12.803,22.151l-1.493,2.631l-1.571,2.67L68.618,223.094L66.929,226h188.594
		c0,0,0,0,0.039,0c0.079-0.039,0.196-0.039,0.353-0.039c0.118,0,0.236-0.039,0.353-0.039c0.825-0.039,1.571-0.157,2.317-0.353
		c0.393-0.118,0.746-0.236,1.1-0.353c0.707-0.236,1.375-0.55,2.003-0.982c0.314-0.196,0.628-0.393,0.903-0.628
		c0.314-0.196,0.589-0.432,0.864-0.707c0.275-0.236,0.51-0.471,0.746-0.746c0.275-0.275,0.471-0.55,0.707-0.864
		c0.471-0.589,0.864-1.217,1.139-1.846c0.314-0.628,0.589-1.296,0.785-2.003C267.699,214.532,267.424,211.311,265.735,208.366z" fill="url(#SVGID_1_)"></path>
	
		<linearGradient id="SVGID_2_" gradientUnits="userSpaceOnUse" x1="116.3361" y1="587.2604" x2="116.3361" y2="755.2446" gradientTransform="matrix(1 0 0 -1 0 812.2786)">
		<stop offset="0" style="" stop-color="#00F3FF"></stop>
		<stop offset="0.2382" style="" stop-color="#00F0FC"></stop>
		<stop offset="0.4403" style="" stop-color="#00E5F5"></stop>
		<stop offset="0.6291" style="" stop-color="#00D4E7"></stop>
		<stop offset="0.8098" style="" stop-color="#00BBD5"></stop>
		<stop offset="0.9833" style="" stop-color="#009BBD"></stop>
		<stop offset="1" style="" stop-color="#0098BA"></stop>
	</linearGradient>
	<path style="" d="M216.524,226c0,0-0.039-0.039-0.078-0.118c0-0.039,0-0.039,0-0.039l-74.7-129.408
		l-18.93-32.755c-4.792-8.287-16.77-8.287-21.562,0l-5.145,8.955c-0.079,0.157-0.196,0.314-0.275,0.393
		c-0.039,0.118-0.078,0.157-0.078,0.157l-55.769,96.615c0,0-0.039,0.039-0.079,0.157c-0.039,0.079-0.118,0.236-0.196,0.432
		l-21.955,37.978C13.202,216.181,18.858,226,27.93,226H216.524z" fill="url(#SVGID_2_)"></path>
	<path style="" d="M265.735,208.366L182.199,63.68c-4.792-8.287-16.77-8.287-21.562,0l-4.516,7.816
		c0.472-0.707,2.357-3.496,5.302-7.973c1.649-2.396,4.791-4.713,8.797-4.909c3.967-0.236,8.444,1.846,10.604,6.048
		c4.988,9.425,10.918,20.344,17.398,31.929c6.441,11.665,13.471,23.958,20.54,36.29c7.148,12.254,14.256,24.507,21.129,35.896
		c6.834,11.429,13.314,22.033,18.97,31.027c1.414,2.278,2.749,4.438,4.045,6.48c1.335,2.121,2.631,3.849,3.063,5.734
		c1.021,3.849-0.275,7.58-2.2,9.779c-1.885,2.278-4.202,3.338-5.734,3.77c-0.982,0.275-1.728,0.353-2.121,0.393
		C264.753,225.725,270.173,216.063,265.735,208.366z" opacity="0.3"></path>
	<path style="" d="M216.446,225.843c-0.314-0.668-1.807-3.692-4.242-8.483c-2.867-5.459-6.794-13.314-11.743-22.582
		c-4.948-9.308-10.8-20.069-17.202-31.576c-6.362-11.507-13.353-23.682-20.305-35.897c-6.637-11.389-13.274-22.818-19.715-33.501
		l-1.493,2.631l-18.93-32.755c-4.792-8.287-16.77-8.287-21.562,0l-5.145,8.955c0.746-1.061,2.474-3.652,4.988-7.501
		c1.492-2.631,4.005-5.381,7.973-6.205c3.77-0.903,8.64,0.589,11.232,4.084c1.335,1.885,2.553,4.634,3.927,7.03
		c1.335,2.514,2.749,5.066,4.202,7.737c2.906,5.263,5.97,10.84,9.112,16.613c0.864,1.571,1.728,3.142,2.631,4.713
		c5.616,10.094,11.665,20.619,17.674,31.144c7.069,12.136,14.139,24.271,20.933,35.544c6.755,11.272,13.157,21.758,18.773,30.673
		c5.538,8.954,10.368,16.259,13.667,21.483C214.089,222.387,215.975,225.175,216.446,225.843z" opacity="0.3"></path>
	<path style="" d="M184.908,226c0,0-3.534-0.275-9.7-0.589c-6.205-0.236-15.042-0.785-25.646-1.1
		c-10.604-0.393-22.936-0.707-36.211-0.904c-13.235-0.236-27.374-0.275-41.513-0.353c-1.061,0-2.16,0-3.221,0.039
		c-13.078,0.039-26.078,0.079-38.292,0.314l-2.474,0.039c-0.628-0.039-1.296-0.039-1.924-0.196
		c-1.218-0.236-2.435-0.707-3.456-1.453c-2.121-1.414-3.535-3.731-4.006-6.127c-0.196-1.217-0.196-2.474,0.039-3.652
		c0.158-0.589,0.196-0.982,0.511-1.649l0.432-0.982c0.039-0.118,0.314-0.589,0.432-0.864c1.374-2.514,2.671-4.948,3.927-7.266
		c4.988-9.347,8.955-17.281,11.821-22.779c2.121-4.124,3.495-6.952,4.085-8.09l-21.955,37.978C13.202,216.181,18.858,226,27.93,226
		H184.908z" opacity="0.6" fill="#FFFFFF"></path>
	<path style="" d="M180.314,218.145c-79.57-19.677-99.757-63.546-101.17-100.503L46.86,173.608
		l-0.197,0.55l-0.157,0.157l-21.955,37.978c-1.021,1.768-0.353,3.299,0,3.888c0.314,0.589,1.336,1.964,3.378,1.964H180.314z" opacity="0.3" fill="#FFFFFF"></path>
</g>
</svg></g> <!----></g><g id="shapge_wvhb2vPTUq" transform="translate(148.16176470588232,225.00000000000003) rotate(0,47,19) scale(1.1029411764705883,1.1029411764705883)" filter="" style="cursor: move; opacity: 1;"><g><svg xmlns="http://www.w3.org/2000/svg" version="1.1" xmlns:xlink="http://www.w3.org/1999/xlink" overflow="hidden" style="top:0; left: 0" width="94" height="38" viewBox="0 0 94.03000000000002 38.279999999999994" preserveAspectRatio="none" data-parent="shapge_wvhb2vPTUq"><rect fill="rgba(0,0,0,0)" width="94" height="38"></rect> <rect opacity="0"></rect><g transform="translate(0 0)" data-width="89.03000000000002"><path fill="#00BBD5" d="M11.25 0.38L11.25 0.38L11.25 0.38Q8.47 0.38 6.31-0.93L6.31-0.93L6.31-0.93Q4.15-2.23 2.91-4.70L2.91-4.70L2.91-4.70Q1.68-7.16 1.68-10.61L1.68-10.61L1.68-10.61Q1.68-14.07 2.94-16.53L2.94-16.53L2.94-16.53Q4.21-19.00 6.41-20.33L6.41-20.33L6.41-20.33Q8.61-21.66 11.43-21.66L11.43-21.66L11.43-21.66Q13.66-21.66 15.15-20.85L15.15-20.85L15.15-20.85Q16.65-20.04 17.55-19.02L17.55-19.02L16.10-17.28L16.10-17.28Q15.31-18.15 14.21-18.73L14.21-18.73L14.21-18.73Q13.11-19.31 11.48-19.31L11.48-19.31L11.48-19.31Q8.29-19.31 6.37-16.99L6.37-16.99L6.37-16.99Q4.44-14.67 4.44-10.70L4.44-10.70L4.44-10.70Q4.44-6.67 6.26-4.32L6.26-4.32L6.26-4.32Q8.09-1.97 11.51-1.97L11.51-1.97L11.51-1.97Q13.83-1.97 15.37-3.22L15.37-3.22L15.37-8.79L10.88-8.79L10.88-11.02L17.84-11.02L17.84-2.09L17.84-2.09Q16.79-1.02 15.09-0.32L15.09-0.32L15.09-0.32Q13.40 0.38 11.25 0.38Z" transform="translate(0 25.52)"></path><path fill="#00BBD5" d="M8.76-7.11L1.33-7.11L1.33-9.13L8.76-9.13L8.76-7.11Z" transform="translate(19.981 25.52)"></path><path fill="#00BBD5" d="M9.69 0L2.90 0L2.90-21.26L9.22-21.26L9.22-21.26Q11.40-21.26 13.04-20.73L13.04-20.73L13.04-20.73Q14.67-20.21 15.60-19.08L15.60-19.08L15.60-19.08Q16.53-17.95 16.53-16.07L16.53-16.07L16.53-16.07Q16.53-14.47 15.72-13.22L15.72-13.22L15.72-13.22Q14.91-11.98 13.40-11.46L13.40-11.46L13.40-11.31L13.40-11.31Q15.34-10.93 16.54-9.67L16.54-9.67L16.54-9.67Q17.75-8.41 17.75-6.24L17.75-6.24L17.75-6.24Q17.75-3.10 15.50-1.55L15.50-1.55L15.50-1.55Q13.25 0 9.69 0L9.69 0ZM5.60-19.14L5.60-12.21L8.76-12.21L8.76-12.21Q11.51-12.21 12.70-13.17L12.70-13.17L12.70-13.17Q13.89-14.12 13.89-15.72L13.89-15.72L13.89-15.72Q13.89-17.60 12.63-18.37L12.63-18.37L12.63-18.37Q11.37-19.14 8.87-19.14L8.87-19.14L5.60-19.14ZM5.60-10.15L5.60-2.15L9.31-2.15L9.31-2.15Q12.06-2.15 13.59-3.16L13.59-3.16L13.59-3.16Q15.11-4.18 15.11-6.32L15.11-6.32L15.11-6.32Q15.11-8.29 13.60-9.22L13.60-9.22L13.60-9.22Q12.09-10.15 9.31-10.15L9.31-10.15L5.60-10.15Z" transform="translate(30.044000000000004 25.52)"></path><path fill="#00BBD5" d="M5.60 0L2.90 0L2.90-21.26L5.60-21.26L5.60 0Z" transform="translate(49.09700000000001 25.52)"></path><path fill="#00BBD5" d="M14.88 0L2.90 0L2.90-21.26L5.60-21.26L5.60-2.29L14.88-2.29L14.88 0Z" transform="translate(57.59400000000001 25.52)"></path><path fill="#00BBD5" d="M14.88 0L2.90 0L2.90-21.26L5.60-21.26L5.60-2.29L14.88-2.29L14.88 0Z" transform="translate(73.31200000000001 25.52)"></path></g></svg></g> <!----></g>  <!----></svg>